<svg xmlns="http://www.w3.org/2000/svg" width="28" height="28" viewBox="0 0 28 28"><defs><style>.a{fill:#fff;}.b{fill:#2583fd;fill-rule:evenodd;}.c,.d{stroke:none;}.d{fill:#bcbcbc;}</style></defs><g transform="translate(-39 -6.333)"><g transform="translate(40 7.333)"><g class="a"><path class="c" d="M 13 26.5 C 9.394020080566406 26.5 6.003870010375977 25.09575080871582 3.454060077667236 22.54594039916992 C 0.9042500257492065 19.99612998962402 -0.5 16.60597991943359 -0.5 13 C -0.5 9.394020080566406 0.9042500257492065 6.003870010375977 3.454060077667236 3.454060077667236 C 6.003870010375977 0.9042500257492065 9.394020080566406 -0.5 13 -0.5 C 16.60597991943359 -0.5 19.99612998962402 0.9042500257492065 22.54594039916992 3.454060077667236 C 25.09575080871582 6.003870010375977 26.5 9.394020080566406 26.5 13 C 26.5 16.60597991943359 25.09575080871582 19.99612998962402 22.54594039916992 22.54594039916992 C 19.99612998962402 25.09575080871582 16.60597991943359 26.5 13 26.5 Z"/><path class="d" d="M 13 0 C 5.82029914855957 0 0 5.82029914855957 0 13 C 0 20.1796989440918 5.82029914855957 26 13 26 C 20.1796989440918 26 26 20.1796989440918 26 13 C 26 5.82029914855957 20.1796989440918 0 13 0 M 13 -1 C 16.73952865600586 -1 20.25523948669434 0.4562492370605469 22.89949035644531 3.100509643554688 C 25.54375076293945 5.744760513305664 27 9.260469436645508 27 13 C 27 16.73952865600586 25.54375076293945 20.25523948669434 22.89949035644531 22.89949035644531 C 20.25523948669434 25.54375076293945 16.73952865600586 27 13 27 C 9.260469436645508 27 5.744760513305664 25.54375076293945 3.100509643554688 22.89949035644531 C 0.4562492370605469 20.25523948669434 -1 16.73952865600586 -1 13 C -1 9.260469436645508 0.4562492370605469 5.744760513305664 3.100509643554688 3.100509643554688 C 5.744760513305664 0.4562492370605469 9.260469436645508 -1 13 -1 Z"/></g><g transform="translate(6.5 5.2)"><path class="b" d="M14.183,2.533c2.472-.285,4.2,1.361,3.968,4.173a6.4,6.4,0,0,1-.777,2.414c-.37.657-1.2,1.293-.982,2.127.139.528,1.3.839,1.718,1.023,1.069.47,2.57,1.171,2.946,2.291a2.6,2.6,0,0,1,0,1.432c-.6,1.554-4.316,1.636-6.382,1.636a21.45,21.45,0,0,1-3.764-.245c-1.435-.266-3.174-.841-2.659-2.741.232-.857,1.267-1.484,2.209-2a13.191,13.191,0,0,1,1.391-.7C12.3,11.76,12.939,11.595,13,11c.048-.5-.27-.77-.573-1.187A5.936,5.936,0,0,1,11.2,5.806,3.313,3.313,0,0,1,14.183,2.533Z" transform="translate(-8.158 -2.501)"/></g></g></g></svg>